<svg xmlns="http://www.w3.org/2000/svg" width="150" height="33.857" viewBox="0 14.071 150 33.857"><path fill="#7C2623" d="M14.679 14.071V19l.053-.054 10.339 6v5.197l-10.393-6.268-4.339 2.571 4.339 2.518 10.393 5.946v2.144L14.732 43.16h-.053v4.769l14.678-8.464V22.536"/><path fill="#BC3A2F" d="M14.679 33.143 4.286 27.304v-2.357L14.679 19v-4.929L0 22.536v16.929l14.679 8.464V43.16L4.286 37.268V32.34l10.393 5.839h.053l4.393-2.571"/><path fill="#565D5D" d="M47.679 26.232a.55.55 0 0 1-.268.321c-.107.054-.214.106-.321.106-.107 0-.268-.053-.429-.16s-.375-.215-.589-.321c-.214-.107-.482-.269-.803-.321a3.229 3.229 0 0 0-1.072-.161c-.375 0-.696.054-.964.161-.268.107-.536.214-.696.375-.214.16-.321.375-.429.589a1.712 1.712 0 0 0-.161.75c0 .321.107.644.268.857.214.214.429.429.75.589a6.33 6.33 0 0 0 1.071.429c.375.107.804.269 1.232.429.428.16.803.321 1.232.482.375.214.75.428 1.071.696.322.268.589.643.75 1.071.214.429.268.91.268 1.554 0 .643-.107 1.286-.321 1.821a4.018 4.018 0 0 1-.964 1.5c-.429.429-.964.75-1.554 1.018-.643.268-1.339.375-2.143.375a5.4 5.4 0 0 1-1.339-.16 11.764 11.764 0 0 1-1.286-.375 5.551 5.551 0 0 1-1.125-.59 3.51 3.51 0 0 1-.964-.803l.803-1.286c.054-.107.161-.161.268-.214.107-.055.214-.107.321-.107.161 0 .321.053.536.214s.429.269.697.429c.268.16.589.321.911.482.375.16.803.214 1.286.214.75 0 1.339-.161 1.768-.536.429-.375.643-.91.643-1.553 0-.375-.107-.697-.268-.911-.214-.214-.428-.429-.75-.589a6.33 6.33 0 0 0-1.071-.429c-.375-.107-.804-.214-1.232-.375-.429-.107-.804-.269-1.232-.482-.375-.161-.75-.429-1.071-.75s-.589-.696-.75-1.125c-.214-.429-.268-1.018-.268-1.661 0-.535.107-1.018.322-1.553.214-.482.536-.965.911-1.34a4.69 4.69 0 0 1 1.5-.91 5.73 5.73 0 0 1 2.036-.375c.857 0 1.661.107 2.357.375.697.268 1.339.643 1.822 1.125l-.753 1.125zm11.035 9.858c.589 0 1.125-.055 1.607-.161.429-.107.857-.269 1.286-.429v-2.625h-1.821a.615.615 0 0 1-.429-.16.488.488 0 0 1-.161-.375v-1.5h4.822v5.839c-.375.268-.75.481-1.125.696s-.804.375-1.286.482c-.428.107-.911.214-1.446.268s-1.071.107-1.661.107c-1.071 0-2.036-.161-2.893-.536-.911-.375-1.661-.856-2.303-1.554a6.338 6.338 0 0 1-1.5-2.357c-.375-.91-.536-1.875-.536-2.945 0-1.072.161-2.09.536-3a7.681 7.681 0 0 1 1.5-2.357 6.338 6.338 0 0 1 2.357-1.5c.911-.375 1.982-.536 3.107-.536 1.178 0 2.196.161 3.053.536.857.375 1.607.803 2.197 1.339l-.804 1.232c-.161.268-.375.375-.589.375a.865.865 0 0 1-.482-.161c-.214-.107-.429-.268-.643-.375s-.482-.214-.75-.321c-.268-.106-.589-.161-.911-.214a7.333 7.333 0 0 0-1.179-.107c-.696 0-1.339.107-1.929.375-.589.215-1.071.59-1.5 1.018-.428.429-.696.965-.964 1.607a6.582 6.582 0 0 0-.322 2.09c0 .856.107 1.553.375 2.25.214.643.536 1.178.964 1.66.429.429.911.804 1.5 1.018a5.651 5.651 0 0 0 1.93.321m21.911 1.981h-2.09c-.214 0-.428-.054-.589-.161a.825.825 0 0 1-.321-.428l-1.071-2.947h-6l-1.072 2.947c-.053.16-.161.268-.321.428-.161.107-.375.215-.589.215h-2.089l5.679-14.465h2.732l5.731 14.411zm-9.375-5.464h4.607l-1.768-4.822c-.054-.214-.161-.481-.268-.75a4.182 4.182 0 0 1-.268-.964c-.107.321-.161.644-.268.964-.107.269-.161.536-.268.75l-1.767 4.822zm14.946 3.268h5.786v2.196h-8.465V23.607h2.679m9.429 0h2.679v14.464h-2.679V23.607zm9.054.053c.054 0 .161.055.214.055.054.053.107.053.161.106l.214.214 7.607 9.697c-.054-.215-.054-.482-.054-.697v-9.428h2.357v14.464h-1.394c-.214 0-.375-.054-.535-.106-.16-.055-.268-.161-.429-.375l-7.554-9.644c0 .214.054.429.054.644v9.481h-2.356V23.607h1.393c.108 0 .214 0 .322.053m22.553 2.572a.55.55 0 0 1-.268.321c-.107.054-.215.106-.322.106s-.268-.053-.428-.16a5.625 5.625 0 0 0-.59-.321c-.215-.107-.482-.269-.804-.321a3.223 3.223 0 0 0-1.071-.161c-.375 0-.696.054-.965.161-.268.107-.535.214-.695.375-.215.16-.322.375-.43.589-.106.214-.16.482-.16.75 0 .321.107.644.268.857.215.214.429.429.75.589.322.161.697.322 1.072.429.375.107.803.269 1.231.429s.804.321 1.232.482c.375.214.75.428 1.071.696.321.268.59.643.75 1.071.215.429.268.91.268 1.554 0 .643-.107 1.286-.321 1.821a4.018 4.018 0 0 1-.964 1.5c-.429.429-.965.75-1.554 1.018-.644.268-1.339.375-2.144.375-.481 0-.91-.053-1.339-.16s-.856-.215-1.286-.375a5.551 5.551 0 0 1-1.125-.59 3.525 3.525 0 0 1-.964-.803l.804-1.286c.054-.107.16-.161.268-.214.107-.055.215-.107.322-.107.16 0 .32.053.535.214s.429.269.696.429c.269.16.589.321.911.482.375.16.803.214 1.285.214.75 0 1.34-.161 1.768-.536.43-.375.644-.91.644-1.553 0-.375-.107-.697-.269-.911-.214-.214-.428-.429-.75-.589-.32-.161-.643-.322-1.07-.429-.375-.107-.805-.214-1.232-.375-.429-.107-.804-.269-1.232-.482-.375-.161-.75-.429-1.071-.75s-.589-.696-.75-1.125c-.214-.429-.269-1.018-.269-1.661 0-.535.107-1.018.322-1.553a4.56 4.56 0 0 1 .91-1.34 4.69 4.69 0 0 1 1.5-.91 5.735 5.735 0 0 1 2.036-.375c.856 0 1.661.107 2.356.375.697.268 1.34.643 1.822 1.125l-.748 1.125zm7.178 3.428h.644c.268 0 .481-.053.643-.106s.321-.161.429-.321l3.965-5.036c.16-.214.32-.375.535-.429.16-.107.429-.107.696-.107h2.304l-4.875 6c-.16.161-.321.322-.429.482-.161.107-.268.215-.429.322.215.106.429.214.59.32.16.161.375.322.535.536l5.036 6.75h-2.357c-.321 0-.536-.054-.696-.161a1.242 1.242 0 0 1-.375-.375l-4.071-5.356c-.107-.161-.269-.321-.429-.375s-.429-.107-.696-.107h-.857v6.375h-2.679V23.607h2.679v6.053h-.163zm12.911-6.053H150v14.464h-2.679V23.607z"/></svg>